<?xml version="1.0" standalone="no"?><!DOCTYPE svg PUBLIC "-//W3C//DTD SVG 1.1//EN" "http://www.w3.org/Graphics/SVG/1.1/DTD/svg11.dtd"><svg t="1632820383014" class="icon" viewBox="0 0 1024 1024" version="1.1" xmlns="http://www.w3.org/2000/svg" p-id="18408" xmlns:xlink="http://www.w3.org/1999/xlink" width="48" height="48"><defs><style type="text/css"></style></defs><path d="M122 761c72-45 156-126 123-219-18-51-42-96-45-150-3-48 3-93 21-138C287 83 476-7 650 50c159 48 270 234 204 399-39 93-54 168 30 240 24 21 78 51 78 84 0 45-90-9-99-18 12 21 123 138 51 147-66 9-126-84-165-126-66-66-54 81-57 111 0 48-36 147-96 84-51-54-30-138-66-195-39-63-102 63-117 87-18 27-108 153-141 87-30-54 18-141 39-192-9 18-66 45-84 54-36 21-78 30-120 27-90-6-21-54 15-78z" fill="#ffffff" p-id="18409"></path></svg>