<?xml version="1.0" standalone="no"?><!DOCTYPE svg PUBLIC "-//W3C//DTD SVG 1.1//EN" "http://www.w3.org/Graphics/SVG/1.1/DTD/svg11.dtd"><svg t="1632819776268" class="icon" viewBox="0 0 1024 1024" version="1.1" xmlns="http://www.w3.org/2000/svg" p-id="14897" xmlns:xlink="http://www.w3.org/1999/xlink" width="48" height="48"><defs><style type="text/css"></style></defs><path d="M426.666667 554.666667H42.666667a42.666667 42.666667 0 0 1 0-85.333334h384a42.666667 42.666667 0 0 0 42.666666-42.666666V42.666667a42.666667 42.666667 0 0 1 85.333334 0v384a128 128 0 0 1-128 128zM384 256V128a128 128 0 0 0-128-128H128a128 128 0 0 0-128 128v128a128 128 0 0 0 128 128h128a128 128 0 0 0 128-128z m0 640v-128a128 128 0 0 0-128-128H128a128 128 0 0 0-128 128v128a128 128 0 0 0 128 128h128a128 128 0 0 0 128-128z m256-128v128a128 128 0 0 0 128 128h128a128 128 0 0 0 128-128v-128a128 128 0 0 0-128-128h-128a128 128 0 0 0-128 128z m-85.333333 213.333333v-298.666666a42.666667 42.666667 0 0 0-85.333334 0v298.666666a42.666667 42.666667 0 0 0 85.333334 0z" fill="#FCC634" p-id="14898"></path><path d="M458.666667 454.4A42.666667 42.666667 0 0 0 469.333333 426.666667V42.666667a42.666667 42.666667 0 0 1 85.333334 0v384a128 128 0 0 1-35.84 88.32zM348.16 344.32A128 128 0 0 0 384 256V128a128 128 0 0 0-128-128H128A128 128 0 0 0 39.68 35.84zM768 384h128a128 128 0 0 0 128-128V128a128 128 0 0 0-128-128h-128a128 128 0 0 0-128 128v128a128 128 0 0 0 128 128z m220.16 600.32A128 128 0 0 0 1024 896v-128a128 128 0 0 0-128-128h-128a128 128 0 0 0-88.32 35.84zM1024 512a42.666667 42.666667 0 0 0-42.666667-42.666667h-298.666666a42.666667 42.666667 0 0 0 0 85.333334h298.666666a42.666667 42.666667 0 0 0 42.666667-42.666667z" fill="#FCC634" p-id="14899"></path></svg>